<svg xmlns="http://www.w3.org/2000/svg" viewBox="0 0 45 48"><path d="M0.03 42.17C1.65 42.94 3.31 43.74 4.93 44.54H0.03V42.55V42.17ZM35.37 31.77C36.32 31.42 37.31 31.03 38.26 30.65C37.43 30.62 36.57 30.55 35.72 30.43C28.31 29.4 20.55 25.5 13.07 21.72C8.81 19.58 4.39 17.34 0 15.61V17.09C4.13 18.75 8.33 20.89 12.44 22.94C20 26.75 27.8 30.68 35.37 31.77ZM27.99 44.22C28.5 44.34 29.04 44.47 29.58 44.57H34.83C38.07 43.45 41.28 42.14 44.49 40.86V38.33C44.43 38.36 44.37 38.39 44.3 38.39C38.93 40.57 33.43 42.81 27.99 44.22ZM22.9 1.15C24.36 0.86 25.86 0.48 27.38 0H25.95C24.9 0.29 23.85 0.54 22.8 0.77C17.71 1.76 12.85 1.5 8.21 0H6.93C10.08 1.18 13.42 1.76 16.79 1.76C18.83 1.79 20.83 1.57 22.9 1.15ZM36.19 26.97C28.88 26.01 21.44 22.2 13.58 18.2C9.1 15.93 4.55 13.6 0 11.84V12.64C4.45 14.37 8.91 16.64 13.26 18.84C20.83 22.72 28.69 26.72 36.13 27.71C37.34 27.87 38.55 27.96 39.69 27.96C41.35 27.96 42.97 27.77 44.53 27.42V26.65C41.89 27.29 39.15 27.39 36.19 26.97ZM21.63 41.88C21.56 41.88 21.53 41.88 21.47 41.91C22.84 42.52 24.2 43.06 25.6 43.51C31.71 42.14 37.85 39.67 43.86 37.21C44.08 37.15 44.3 37.05 44.49 36.95V34.46C43.98 34.65 43.48 34.84 43 35.07C35.94 37.91 28.66 40.86 21.63 41.88ZM30.31 33.5C31.1 33.24 31.93 32.99 32.73 32.7C26.11 31.19 19.34 27.77 12.75 24.44C8.59 22.3 4.29 20.16 0.03 18.46V19.93C4.07 21.56 8.14 23.61 12.15 25.66C18.16 28.7 24.27 31.8 30.31 33.5ZM20.42 38.46C18.54 38.71 16.7 38.84 14.98 38.81C16.44 39.51 17.87 40.22 19.4 40.92C27.13 40.09 34.89 36.99 42.52 33.91C43.16 33.63 43.86 33.37 44.49 33.11V30.62C43.54 30.97 42.62 31.39 41.63 31.74C34.67 34.59 27.42 37.47 20.42 38.46ZM0.03 38.17V40.73C2.48 41.88 4.96 43.1 7.38 44.34C7.51 44.41 7.66 44.47 7.79 44.54H13.04C11.51 43.8 9.99 43.03 8.43 42.26C5.66 40.86 2.83 39.45 0.03 38.17ZM9.29 38.65C6.23 37.11 3.12 35.55 0.03 34.14V36.7C3.47 38.17 6.97 39.96 10.4 41.7C12.98 43.01 15.56 44.32 18.16 45.5H24.05C23.92 45.44 23.79 45.44 23.7 45.38C19.66 43.81 15.59 41.76 11.45 39.65L9.29 38.65ZM25.73 34.84C26.49 34.65 27.26 34.46 28.02 34.23C22.84 32.44 17.56 29.79 12.4 27.16C8.33 25.12 4.17 23 0 21.31V22.78C3.91 24.38 7.89 26.43 11.77 28.38C16.41 30.71 21.09 33.08 25.73 34.84ZM44.46 44.54V42.14C42.46 42.97 40.49 43.77 38.48 44.54H44.46ZM21.21 35.83C21.98 35.71 22.77 35.55 23.53 35.35C19.69 33.72 15.84 31.77 12.02 29.85C8.05 27.84 4.01 25.76 0 24.12V25.63C3.78 27.23 7.63 29.15 11.42 31.1C14.69 32.73 17.97 34.39 21.21 35.83ZM16.44 36.51C17.3 36.44 18.16 36.35 19.02 36.22C16.57 35.03 14.12 33.79 11.7 32.57C7.86 30.62 3.91 28.6 0 26.97V28.44C3.69 30.01 7.41 31.93 11.07 33.75C12.85 34.71 14.63 35.61 16.44 36.51ZM13.93 36.6C13.07 36.15 12.21 35.71 11.35 35.29C7.63 33.4 3.78 31.45 0.03 29.82V31.32C3.47 32.79 6.97 34.59 10.4 36.35C11.51 36.51 12.69 36.57 13.93 36.6ZM38.86 6.33C38.39 6.53 37.94 6.72 37.47 6.91C38.48 7.1 39.47 7.17 40.45 7.17C41.76 7.17 43.13 7.01 44.46 6.69V5.92C42.65 6.37 40.8 6.53 38.86 6.33ZM41.82 5.02C42.71 4.96 43.57 4.83 44.46 4.58V3.81C44.43 3.81 44.43 3.81 44.4 3.81C43.57 4.26 42.68 4.64 41.82 5.02ZM18.8 18.49C17.75 17.95 16.7 17.44 15.65 16.89C10.53 14.27 5.28 11.61 0.03 9.66V10.46C5.12 12.35 10.24 14.94 15.27 17.53C16.35 18.08 17.43 18.62 18.48 19.16C24.99 22.46 31.93 25.56 38.58 25.88C38.96 25.92 39.34 25.92 39.72 25.92C41.35 25.92 42.94 25.72 44.46 25.4V24.64C36.19 26.56 27.57 22.94 18.8 18.49ZM38.58 23C32.54 22.65 26.3 20.03 18.83 16.13L18.26 15.84C12.4 12.8 6.23 9.6 0 7.45V8.22C6.04 10.33 12.05 13.44 17.91 16.48L18.45 16.77C26.05 20.7 32.38 23.39 38.55 23.74C38.96 23.77 39.41 23.8 39.82 23.8C41.41 23.8 42.97 23.61 44.46 23.29V22.52C42.62 22.97 40.68 23.13 38.58 23ZM32.47 0H31.42C21.15 4.32 11.8 4.32 3.47 0H2.58C7 2.43 11.74 3.68 16.73 3.68C21.69 3.68 26.97 2.43 32.47 0ZM38.58 20.92C34.28 20.64 29.26 19.32 18.86 13.79C17.68 13.18 16.44 12.51 15.2 11.87C14.44 11.81 13.74 11.74 13.04 11.65C14.69 12.48 16.54 13.41 18.51 14.49C26.43 18.46 33.08 21.76 39.98 21.76C41.47 21.76 43 21.6 44.49 21.28V20.51C42.59 20.89 40.65 21.05 38.58 20.92ZM22.96 6.88C28.62 5.85 34.6 3.55 40.71 0.03H39.88C20.96 10.75 7.89 7.29 0.03 2.08V2.56C4.99 5.82 10.56 7.45 16.57 7.45C18.64 7.45 20.77 7.26 22.96 6.88ZM22.93 4.96C27.35 4.13 31.99 2.46 36.77 0H35.87C31.39 2.24 27.03 3.78 22.87 4.54C14.47 6.08 6.77 4.54 0.03 0V0.48C5.09 3.87 10.65 5.54 16.63 5.54C18.7 5.54 20.8 5.38 22.93 4.96ZM23.09 11.36C22.68 11.42 22.26 11.49 21.85 11.55C27.35 14.49 33.01 17.05 38.48 17.5C39.02 17.53 39.6 17.57 40.14 17.57C41.6 17.57 43.03 17.41 44.46 17.09V16.32C37.69 17.95 30.85 15.42 23.09 11.36ZM38.45 10.46C36.42 10.27 34.35 9.73 32.25 8.96C31.87 9.09 31.49 9.18 31.14 9.31C33.59 10.3 35.97 10.97 38.36 11.2C38.99 11.26 39.66 11.29 40.26 11.29C41.7 11.29 43.06 11.13 44.43 10.81V10.05C42.49 10.53 40.52 10.69 38.45 10.46ZM38.45 8.41C37.4 8.29 36.42 8.06 35.33 7.81C34.95 7.97 34.57 8.09 34.16 8.25C35.59 8.7 36.96 8.99 38.36 9.15C38.99 9.21 39.69 9.25 40.33 9.25C41.73 9.25 43.09 9.09 44.46 8.77V8C42.49 8.48 40.49 8.61 38.45 8.41ZM38.48 12.57C35.49 12.29 32.41 11.29 29.29 9.92C28.94 10.01 28.56 10.11 28.18 10.24C31.68 11.84 35.11 12.99 38.42 13.34C39.06 13.41 39.66 13.41 40.26 13.41C41.73 13.41 43.13 13.25 44.49 12.93V12.16C42.52 12.61 40.55 12.73 38.48 12.57ZM43.7 0C36.64 4.32 29.45 7.2 22.9 8.35C14.28 9.82 6.58 8.41 0 4.13V4.61C4.93 7.74 10.43 9.34 16.44 9.34C18.57 9.34 20.74 9.15 22.96 8.77C29.74 7.58 37.15 4.54 44.46 0H43.7ZM38.51 14.65C34.54 14.3 30.44 12.8 26.27 10.72C25.89 10.78 25.51 10.91 25.09 10.97C29.64 13.25 34.06 15.04 38.45 15.39C39.02 15.45 39.63 15.45 40.2 15.45C41.66 15.45 43.06 15.29 44.46 14.97V14.21C42.52 14.69 40.55 14.81 38.51 14.65ZM38.58 18.81C32.89 18.43 27.03 15.84 19.59 11.81C19.11 11.84 18.67 11.87 18.16 11.87C18.29 11.93 18.41 12 18.54 12.06C26.43 16.38 32.5 19.13 38.51 19.55C39.02 19.61 39.56 19.61 40.07 19.61C41.57 19.61 43.06 19.45 44.49 19.13V18.36C42.59 18.81 40.61 18.97 38.58 18.81Z" fill="#71C22D"/></svg>